<svg width="123" height="70" viewBox="0 0 123 70" fill="none" xmlns="http://www.w3.org/2000/svg">
<path d="M61.0564 70C54.7481 63.2446 50.7129 54.9499 48.1579 46.7579C44.3165 34.4613 43.7879 22.387 43.7879 16.1104C43.7879 10.9797 46.0081 7.11459 49.3032 4.44662C52.5631 1.81285 56.845 0.35915 61.0564 0C65.2678 0.342047 69.5496 1.79575 72.8095 4.44662C76.087 7.11459 78.3249 10.9797 78.3249 16.1104C78.3249 22.387 77.7962 34.4613 73.9549 46.7579C71.3998 54.9499 67.3823 63.2446 61.0564 70Z" fill="url(#paint0_linear_8_792)"/>
<path d="M61.0563 62.321C50.149 46.792 48.8803 25.2944 48.8803 16.1275C48.8803 8.49984 55.3295 5.13067 61.0563 4.51498C66.7831 5.13067 73.2324 8.48273 73.2324 16.1275C73.2324 25.2773 71.9637 46.7749 61.0563 62.321Z" fill="url(#paint1_linear_8_792)"/>
<path d="M61.0564 31.7078C59.1886 36.6675 53.1975 43.5085 48.1579 46.7579C44.3165 34.4613 43.7879 22.387 43.7879 16.1105C43.7879 10.9798 46.0081 7.11462 49.3032 4.44666C52.7041 6.08848 59.4176 9.88521 61.0564 14.9817C61.0564 14.9817 61.0564 14.9817 61.0564 14.9646C61.0564 14.9646 61.0564 14.9646 61.0564 14.9817C62.6951 9.88521 69.4087 6.07138 72.8095 4.44666C76.087 7.11462 78.3249 10.9798 78.3249 16.1105C78.3249 22.387 77.7962 34.4613 73.9549 46.7579C68.9153 43.5085 62.9242 36.6675 61.0564 31.7078Z" fill="url(#paint2_radial_8_792)"/>
<path d="M58.4661 22.558C57.2327 25.0891 54.9948 27.244 51.9464 28.5267C50.0786 29.3305 45.5324 30.8013 39.8408 32.4261C34.3607 33.9653 27.8586 35.6413 21.7089 36.8898C12.0527 38.8736 3.29511 39.8827 0.740077 37.9672C0.687215 37.9159 0.634352 37.8817 0.58149 37.8304C0.528627 37.7791 0.493385 37.7449 0.440522 37.6936L0.422901 37.6765C0.38766 37.6423 0.352418 37.6081 0.317176 37.5568C0.264313 37.5055 0.229072 37.437 0.211451 37.3857C0.0704836 37.1292 0 36.8556 0 36.5477C0 36.4451 0 36.3254 0.0176209 36.2228C0.0352418 36.1202 0.0528627 36.0347 0.0704836 35.932C0.105725 35.7781 0.158588 35.6242 0.229072 35.4703C0.281934 35.3506 0.317176 35.2479 0.370039 35.1282C0.422901 35.0085 0.493385 34.8888 0.563869 34.752C0.563869 34.752 0.58149 34.7349 0.58149 34.7178C0.651973 34.581 0.740078 34.4441 0.828182 34.3073C0.845803 34.2731 0.881045 34.256 0.881045 34.2218C0.951528 34.1021 1.03963 33.9824 1.12774 33.8627C1.33919 33.5719 1.56826 33.2641 1.83257 32.9562C1.9383 32.8194 2.06164 32.6826 2.18499 32.5458C3.55942 30.9895 5.51534 29.2279 7.8413 27.3809C8.2642 27.0388 8.70472 26.6968 9.16286 26.3547C9.39194 26.1837 9.62101 25.9956 9.85008 25.8245C10.9954 24.9523 12.2289 24.063 13.48 23.1737C13.9734 22.8316 14.4668 22.4725 14.9778 22.1304C15.2949 21.9081 15.6121 21.6858 15.9469 21.4805C16.2288 21.2924 16.5108 21.0872 16.8103 20.8991C16.9161 20.8135 17.0394 20.7451 17.1451 20.6767C17.4799 20.4544 17.8147 20.2321 18.1495 20.0097C18.8544 19.548 19.5768 19.0691 20.2816 18.6073C20.8631 18.2311 21.4446 17.8548 22.0261 17.4786C22.3257 17.3076 22.6076 17.1194 22.8895 16.9313C23.4534 16.5722 23.9997 16.2301 24.5635 15.8881C24.8631 15.6999 25.1803 15.5118 25.4798 15.3237C26.0437 14.9816 26.6075 14.6396 27.1714 14.2975C27.4534 14.1265 27.7177 13.9555 27.9996 13.8016C29.7793 12.7412 31.4885 11.7493 33.0392 10.86C36.2286 9.06421 38.8012 7.73022 40.158 7.14874C46.8892 4.29265 54.9772 6.75539 58.2371 12.6386C58.3252 12.8096 58.4133 12.9978 58.5014 13.1688C58.5719 13.3227 58.6423 13.4766 58.7128 13.6134C58.7304 13.6647 58.7481 13.7161 58.7657 13.7503C58.8185 13.87 58.8714 13.9897 58.9066 14.1265C58.9243 14.1949 58.9595 14.2633 58.9771 14.3317C59.03 14.4857 59.0829 14.6396 59.1181 14.7764C59.911 17.4273 59.6467 20.1637 58.4661 22.558Z" fill="url(#paint3_linear_8_792)"/>
<path opacity="0.31" d="M58.4661 22.5581C57.2327 25.0892 54.9948 27.2441 51.9464 28.5268C50.0786 29.3306 45.5324 30.8014 39.8409 32.4262C34.3608 33.9654 27.8586 35.6414 21.709 36.8899C22.7838 33.5891 26.2904 23.2251 31.2066 14.1095C31.8057 13.015 32.4225 11.9375 33.0392 10.8772C36.2286 9.08142 38.8012 7.74744 40.158 7.16596C46.8892 4.30986 54.9772 6.7726 58.2371 12.6558C58.3252 12.8268 58.4133 13.015 58.5014 13.186C58.5719 13.3399 58.6424 13.4938 58.7128 13.6307C58.7305 13.682 58.7481 13.7333 58.7657 13.7675C58.8186 13.8872 58.8714 14.0069 58.9067 14.1437C58.9243 14.2121 58.9595 14.2805 58.9771 14.349C59.03 14.5029 59.0829 14.6568 59.1181 14.7936C59.9111 17.4274 59.6467 20.1638 58.4661 22.5581Z" fill="url(#paint4_linear_8_792)"/>
<path d="M59.1181 14.8106C59.0476 14.6909 58.9948 14.5712 58.9419 14.4344C55.6644 8.53404 47.5764 6.0884 40.8629 8.94449C39.1712 9.66279 35.5766 11.5783 31.189 14.1094C19.242 21.053 1.49778 32.751 0.740077 37.9672C0.687215 37.9159 0.634352 37.8817 0.58149 37.8304C0.528627 37.7791 0.493385 37.7449 0.440522 37.6936L0.422901 37.6765C0.38766 37.6423 0.352418 37.6081 0.317176 37.5568C0.264313 37.5055 0.229072 37.437 0.211451 37.3857C0.0704836 37.1292 0 36.8556 0 36.5477C0 36.4451 0 36.3254 0.0176209 36.2228C0.0352418 36.1202 0.0528627 36.0346 0.0704836 35.932C0.105725 35.7781 0.158588 35.6242 0.229072 35.4703C0.281934 35.3506 0.317176 35.2479 0.370039 35.1282C0.422901 35.0085 0.493385 34.8888 0.563869 34.752C0.563869 34.752 0.58149 34.7349 0.58149 34.7178C0.651973 34.5809 0.740078 34.4441 0.828182 34.3073C0.845803 34.2731 0.881045 34.256 0.881045 34.2218C0.951528 34.1021 1.03963 33.9824 1.12774 33.8626C1.33919 33.5719 1.56826 33.2641 1.83257 32.9562C1.9383 32.8194 2.06164 32.6826 2.18499 32.5458C3.55942 30.9894 5.51534 29.2279 7.8413 27.3808C8.2642 27.0388 8.70472 26.6968 9.16286 26.3547C9.39194 26.1837 9.62101 25.9956 9.85008 25.8245C10.9954 24.9523 12.2289 24.063 13.48 23.1737C13.9734 22.8316 14.4668 22.4725 14.9778 22.1304C15.2949 21.9081 15.6121 21.6858 15.9469 21.4805C16.2288 21.2924 16.5108 21.0872 16.8103 20.899C16.9161 20.8135 17.0394 20.7451 17.1451 20.6767C17.4799 20.4544 17.8147 20.2321 18.1495 20.0097C18.8544 19.548 19.5768 19.0691 20.2816 18.6073C20.8631 18.2311 21.4446 17.8548 22.0261 17.4786C22.3257 17.3076 22.6076 17.1194 22.8895 16.9313C23.4534 16.5722 23.9997 16.2301 24.5635 15.8881C24.8631 15.6999 25.1803 15.5118 25.4798 15.3237C26.0437 14.9816 26.6075 14.6396 27.1714 14.2975C27.4534 14.1265 27.7177 13.9555 27.9996 13.8016C29.7793 12.7412 31.4885 11.7493 33.0392 10.86C36.2286 9.06421 38.8012 7.73022 40.158 7.14874C46.8892 4.29265 54.9772 6.75539 58.2371 12.6386C58.3252 12.8096 58.4133 12.9978 58.5014 13.1688C58.5719 13.3227 58.6423 13.4766 58.7128 13.6134C58.7304 13.6647 58.7481 13.7161 58.7657 13.7503C58.8185 13.87 58.8714 13.9897 58.9066 14.1265C58.9243 14.1949 58.9595 14.2633 58.9771 14.3317C59.03 14.5028 59.0652 14.6567 59.1181 14.8106Z" fill="url(#paint5_linear_8_792)"/>
<path opacity="0.65" d="M51.964 28.5267C50.0962 29.3134 45.5324 30.8013 39.8409 32.4089C25.0217 36.599 2.55507 41.6271 0.211487 37.3686C-0.881009 35.3677 2.53744 31.6051 7.84133 27.3809C19.1892 28.6293 46.3782 30.6132 58.4662 22.558C57.2327 25.0891 54.9948 27.244 51.964 28.5267Z" fill="url(#paint6_linear_8_792)"/>
<path d="M63.6466 22.558C64.8801 25.0892 67.118 27.2441 70.1664 28.5267C72.0342 29.3305 76.5804 30.8014 82.2719 32.4261C87.752 33.9653 94.2541 35.6413 100.404 36.8898C110.06 38.8737 118.818 39.8827 121.373 37.9672C121.426 37.9159 121.478 37.8817 121.531 37.8304C121.584 37.7791 121.619 37.7449 121.672 37.6936L121.69 37.6765C121.725 37.6423 121.76 37.591 121.796 37.5568C121.848 37.5055 121.884 37.4371 121.901 37.3858C122.042 37.1292 122.113 36.8556 122.113 36.5478C122.113 36.4451 122.113 36.3254 122.095 36.2228C122.078 36.1202 122.06 36.0347 122.042 35.9321C122.007 35.7781 121.954 35.6242 121.884 35.4703C121.831 35.3506 121.796 35.248 121.743 35.1283C121.69 35.0085 121.619 34.8888 121.549 34.752C121.549 34.752 121.531 34.7349 121.531 34.7178C121.461 34.581 121.373 34.4442 121.285 34.3073C121.267 34.2731 121.249 34.256 121.232 34.2389C121.161 34.1192 121.073 33.9995 120.985 33.8798C120.774 33.589 120.545 33.2812 120.28 32.9734C120.174 32.8365 120.051 32.6997 119.928 32.5629C118.553 31.0066 116.597 29.245 114.271 27.398C113.849 27.0559 113.408 26.7139 112.95 26.3718C112.721 26.2008 112.492 26.0127 112.263 25.8417C111.117 24.9694 109.884 24.0801 108.633 23.1908C108.139 22.8487 107.646 22.4896 107.135 22.1476C106.818 21.9252 106.501 21.7029 106.166 21.4977C105.884 21.3095 105.602 21.1043 105.302 20.9162C105.197 20.8307 105.073 20.7623 104.968 20.6939C104.633 20.4715 104.298 20.2492 103.963 20.0269C103.258 19.5651 102.536 19.0862 101.831 18.6245C101.25 18.2482 100.668 17.872 100.087 17.4957C99.7871 17.3247 99.5052 17.1366 99.2232 16.9484C98.677 16.5893 98.1131 16.2472 97.5669 15.9052C97.2673 15.7171 96.9501 15.5289 96.6506 15.3408C96.0867 14.9988 95.5228 14.6567 94.959 14.3147C94.677 14.1436 94.4127 13.9726 94.1308 13.8187C92.3511 12.7583 90.6419 11.7664 89.0912 10.8771C85.9018 9.08134 83.3292 7.74735 81.9724 7.16587C75.2412 4.30978 67.1532 6.77252 63.8933 12.6728C63.8052 12.8439 63.7171 13.032 63.629 13.203C63.5585 13.3398 63.4881 13.4938 63.4352 13.6477C63.4 13.699 63.3823 13.7332 63.3647 13.7845C63.3118 13.9042 63.259 14.0239 63.2237 14.1607C63.2061 14.2292 63.1709 14.2976 63.1533 14.366C63.1004 14.5199 63.0475 14.6738 63.0123 14.8106C62.2017 17.4273 62.466 20.1637 63.6466 22.558Z" fill="url(#paint7_linear_8_792)"/>
<path opacity="0.31" d="M63.6466 22.558C64.8801 25.0892 67.118 27.2441 70.1664 28.5267C72.0342 29.3305 76.5804 30.8014 82.2719 32.4261C87.752 33.9653 94.2541 35.6413 100.404 36.8898C99.329 33.589 95.8224 23.225 90.9062 14.1094C90.3071 13.0149 89.6903 11.9374 89.0736 10.8771C85.8842 9.08134 83.3116 7.74735 81.9548 7.16587C75.2412 4.30978 67.1532 6.77252 63.8933 12.6728C63.8052 12.8439 63.7171 13.032 63.629 13.203C63.5585 13.3398 63.4881 13.4938 63.4352 13.6477C63.4 13.699 63.3823 13.7332 63.3647 13.7845C63.3118 13.9042 63.259 14.0239 63.2237 14.1607C63.2061 14.2292 63.1709 14.2976 63.1533 14.366C63.1004 14.5199 63.0475 14.6738 63.0123 14.8106C62.2017 17.4273 62.466 20.1637 63.6466 22.558Z" fill="url(#paint8_linear_8_792)"/>
<path d="M62.9946 14.8106C63.0651 14.6909 63.118 14.5712 63.1709 14.4344C66.4307 8.53406 74.5187 6.07132 81.2323 8.94452C82.9239 9.66282 86.5185 11.5783 90.9061 14.1094C102.853 21.053 120.615 32.7339 121.355 37.9672C121.408 37.9159 121.461 37.8817 121.514 37.8304C121.566 37.7791 121.602 37.7449 121.655 37.6936L121.672 37.6765C121.707 37.6423 121.743 37.591 121.778 37.5568C121.831 37.5055 121.866 37.4371 121.884 37.3858C122.025 37.1292 122.095 36.8556 122.095 36.5478C122.095 36.4451 122.095 36.3254 122.077 36.2228C122.06 36.1202 122.042 36.0347 122.025 35.9321C121.989 35.7781 121.937 35.6242 121.866 35.4703C121.813 35.3506 121.778 35.248 121.725 35.1283C121.672 35.0085 121.602 34.8888 121.531 34.752C121.531 34.752 121.514 34.7349 121.514 34.7178C121.443 34.581 121.355 34.4442 121.267 34.3073C121.249 34.2731 121.232 34.256 121.214 34.2389C121.144 34.1192 121.055 33.9995 120.967 33.8798C120.756 33.589 120.527 33.2812 120.263 32.9734C120.157 32.8365 120.033 32.6997 119.91 32.5629C118.536 31.0066 116.58 29.245 114.254 27.398C113.831 27.0559 113.39 26.7139 112.932 26.3718C112.703 26.2008 112.474 26.0127 112.245 25.8417C111.1 24.9694 109.866 24.0801 108.615 23.1908C108.122 22.8487 107.628 22.4896 107.117 22.1476C106.8 21.9252 106.483 21.7029 106.148 21.4977C105.866 21.3095 105.584 21.1043 105.285 20.9162C105.179 20.8307 105.056 20.7623 104.95 20.6939C104.615 20.4715 104.28 20.2492 103.946 20.0269C103.241 19.5651 102.518 19.0862 101.813 18.6245C101.232 18.2482 100.65 17.872 100.069 17.4957C99.7695 17.3247 99.4875 17.1366 99.2056 16.9484C98.677 16.5893 98.1131 16.2472 97.5668 15.9052C97.2673 15.7171 96.9501 15.5289 96.6505 15.3408C96.0867 14.9988 95.5228 14.6567 94.9589 14.3147C94.677 14.1436 94.4127 13.9726 94.1308 13.8187C92.351 12.7583 90.6418 11.7664 89.0912 10.8771C85.9018 9.08134 83.3292 7.74735 81.9723 7.16587C75.2412 4.30978 67.1532 6.77252 63.8933 12.6728C63.8052 12.8439 63.7171 13.032 63.629 13.203C63.5585 13.3398 63.488 13.4938 63.4352 13.6477C63.3999 13.699 63.3823 13.7332 63.3647 13.7845C63.3118 13.9042 63.259 14.0239 63.2237 14.1607C63.2061 14.2292 63.1709 14.2976 63.1532 14.366C63.1004 14.5028 63.0475 14.6567 62.9946 14.8106Z" fill="url(#paint9_linear_8_792)"/>
<path opacity="0.65" d="M70.1664 28.5267C72.0342 29.3134 76.598 30.8013 82.2896 32.4089C97.1088 36.599 119.575 41.6271 121.919 37.3686C123.011 35.3677 119.593 31.6051 114.289 27.3809C102.941 28.6293 75.7522 30.6132 63.6643 22.558C64.8801 25.0891 67.118 27.244 70.1664 28.5267Z" fill="url(#paint10_linear_8_792)"/>
<path d="M58.237 30.6132C57.0917 32.1183 54.008 35.4361 50.0257 39.3355C39.647 49.5285 23.1538 63.8089 18.6781 61.1752C16.5812 59.9438 17.3742 55.1723 19.5063 49.1693C20.8984 45.2871 22.8367 40.8918 24.9159 36.6162C29.1273 27.9624 33.9202 19.8045 35.7528 17.3931C39.9113 11.9375 48.2988 10.4838 54.519 14.1266C57.9199 16.1275 59.9639 19.2402 60.422 22.5409C60.8097 25.2944 60.1225 28.1505 58.237 30.6132Z" fill="url(#paint11_linear_8_792)"/>
<path d="M37.3916 18.6245C41.5501 13.1688 49.9376 11.7151 56.1578 15.3579C56.2812 15.4263 56.4045 15.5118 56.5279 15.5973C55.9287 15.0672 55.2592 14.5883 54.5367 14.1607C48.3341 10.5179 39.929 11.9716 35.7704 17.4273C31.6119 22.8829 12.458 57.5324 18.6782 61.1752C18.9072 61.312 19.1892 61.3975 19.4887 61.4488C16.2465 54.8302 33.4797 23.7552 37.3916 18.6245Z" fill="url(#paint12_linear_8_792)"/>
<path opacity="0.65" d="M58.237 30.6132C57.0917 32.1182 54.008 35.4361 50.0257 39.3354C39.647 49.5284 23.1538 63.8089 18.6781 61.1751C16.5812 59.9438 17.3742 55.1722 19.5063 49.1693C30.0084 45.2186 54.6247 34.8717 60.422 22.558C60.8097 25.2944 60.1225 28.1505 58.237 30.6132Z" fill="url(#paint13_linear_8_792)"/>
<path d="M63.8757 30.6132C65.0211 32.1183 68.1047 35.4361 72.0871 39.3355C82.4658 49.5285 98.9589 63.8089 103.435 61.1752C105.532 59.9438 104.739 55.1723 102.606 49.1693C101.214 45.2871 99.2761 40.8918 97.1968 36.6162C92.9854 27.9624 88.1926 19.8045 86.36 17.3931C82.2014 11.9375 73.8139 10.4838 67.5937 14.1266C64.1929 16.1275 62.1489 19.2402 61.6907 22.5409C61.3031 25.2944 61.9903 28.1505 63.8757 30.6132Z" fill="url(#paint14_linear_8_792)"/>
<path d="M84.7389 18.6245C80.5803 13.1688 72.1928 11.7151 65.9726 15.3579C65.8493 15.4263 65.7259 15.5118 65.6026 15.5973C66.2017 15.0672 66.8713 14.5883 67.5937 14.1607C73.7963 10.5179 82.2014 11.9716 86.36 17.4273C90.5185 22.8829 109.655 57.5495 103.452 61.1923C103.223 61.3291 102.941 61.4146 102.642 61.4659C105.866 54.8302 88.6507 23.7552 84.7389 18.6245Z" fill="url(#paint15_linear_8_792)"/>
<path opacity="0.65" d="M63.8757 30.6132C65.0211 32.1182 68.1047 35.4361 72.0871 39.3354C82.4658 49.5284 98.9589 63.8089 103.435 61.1751C105.532 59.9438 104.739 55.1722 102.606 49.1693C92.1044 45.2186 67.488 34.8717 61.6907 22.558C61.3031 25.2944 61.9903 28.1505 63.8757 30.6132Z" fill="url(#paint16_linear_8_792)"/>
<defs>
<linearGradient id="paint0_linear_8_792" x1="61.0596" y1="67.4275" x2="61.0596" y2="-1.77369" gradientUnits="userSpaceOnUse">
<stop stop-color="#FF9126"/>
<stop offset="1" stop-color="#FFD915"/>
</linearGradient>
<linearGradient id="paint1_linear_8_792" x1="61.0595" y1="-1.73439" x2="61.0595" y2="96.254" gradientUnits="userSpaceOnUse">
<stop stop-color="#FF9126"/>
<stop offset="1" stop-color="#FFD915"/>
</linearGradient>
<radialGradient id="paint2_radial_8_792" cx="0" cy="0" r="1" gradientUnits="userSpaceOnUse" gradientTransform="translate(61.0596 25.6086) scale(38.2675 33.5848)">
<stop stop-color="#D46900"/>
<stop offset="1" stop-color="#FF9126" stop-opacity="0"/>
</radialGradient>
<linearGradient id="paint3_linear_8_792" x1="29.7886" y1="5.28612" x2="29.7886" y2="46.9704" gradientUnits="userSpaceOnUse">
<stop stop-color="#0008FF"/>
<stop offset="1" stop-color="#02D1FF"/>
</linearGradient>
<linearGradient id="paint4_linear_8_792" x1="40.6412" y1="35.7591" x2="40.6412" y2="5.19474" gradientUnits="userSpaceOnUse">
<stop stop-color="#0058D8" stop-opacity="0"/>
<stop offset="1" stop-color="#0008FF"/>
</linearGradient>
<linearGradient id="paint5_linear_8_792" x1="19.4626" y1="45.0734" x2="42.9681" y2="-3.72152" gradientUnits="userSpaceOnUse">
<stop stop-color="#BCD8FF"/>
<stop offset="1" stop-color="#02D1FF" stop-opacity="0"/>
</linearGradient>
<linearGradient id="paint6_linear_8_792" x1="28.8843" y1="34.1632" x2="29.8035" y2="21.2127" gradientUnits="userSpaceOnUse">
<stop stop-color="#0058D8" stop-opacity="0"/>
<stop offset="1" stop-color="#003E96"/>
</linearGradient>
<linearGradient id="paint7_linear_8_792" x1="92.3305" y1="5.28615" x2="92.3305" y2="46.9704" gradientUnits="userSpaceOnUse">
<stop stop-color="#0008FF"/>
<stop offset="1" stop-color="#02D1FF"/>
</linearGradient>
<linearGradient id="paint8_linear_8_792" x1="81.4779" y1="35.759" x2="81.4779" y2="5.19466" gradientUnits="userSpaceOnUse">
<stop stop-color="#0058D8" stop-opacity="0"/>
<stop offset="1" stop-color="#003E96"/>
</linearGradient>
<linearGradient id="paint9_linear_8_792" x1="102.656" y1="45.0735" x2="79.151" y2="-3.72149" gradientUnits="userSpaceOnUse">
<stop stop-color="#BCD8FF"/>
<stop offset="1" stop-color="#02D1FF" stop-opacity="0"/>
</linearGradient>
<linearGradient id="paint10_linear_8_792" x1="93.2349" y1="34.1632" x2="92.3155" y2="21.2127" gradientUnits="userSpaceOnUse">
<stop stop-color="#0058D8" stop-opacity="0"/>
<stop offset="1" stop-color="#003E96"/>
</linearGradient>
<linearGradient id="paint11_linear_8_792" x1="38.9857" y1="11.0938" x2="38.9857" y2="73.4313" gradientUnits="userSpaceOnUse">
<stop stop-color="#0008FF"/>
<stop offset="1" stop-color="#02D1FF"/>
</linearGradient>
<linearGradient id="paint12_linear_8_792" x1="22.8619" y1="60.9894" x2="50.1326" y2="4.37822" gradientUnits="userSpaceOnUse">
<stop stop-color="#BCD8FF"/>
<stop offset="1" stop-color="#02D1FF" stop-opacity="0"/>
</linearGradient>
<linearGradient id="paint13_linear_8_792" x1="41.2197" y1="45.5301" x2="36.1249" y2="34.8441" gradientUnits="userSpaceOnUse">
<stop stop-color="#0058D8" stop-opacity="0"/>
<stop offset="1" stop-color="#0008FF"/>
</linearGradient>
<linearGradient id="paint14_linear_8_792" x1="83.1336" y1="11.0938" x2="83.1336" y2="73.4313" gradientUnits="userSpaceOnUse">
<stop stop-color="#0008FF"/>
<stop offset="1" stop-color="#02D1FF"/>
</linearGradient>
<linearGradient id="paint15_linear_8_792" x1="99.2574" y1="60.9894" x2="71.9866" y2="4.37821" gradientUnits="userSpaceOnUse">
<stop stop-color="#BCD8FF"/>
<stop offset="1" stop-color="#02D1FF" stop-opacity="0"/>
</linearGradient>
<linearGradient id="paint16_linear_8_792" x1="80.8996" y1="45.5301" x2="85.9942" y2="34.8441" gradientUnits="userSpaceOnUse">
<stop stop-color="#0058D8" stop-opacity="0"/>
<stop offset="1" stop-color="#003E96"/>
</linearGradient>
</defs>
</svg>
